<?xml version="1.0" encoding="utf-8"?>
<!-- Generator: Adobe Illustrator 27.8.1, SVG Export Plug-In . SVG Version: 6.00 Build 0)  -->
<svg version="1.1" id="Layer_1" xmlns="http://www.w3.org/2000/svg" xmlns:xlink="http://www.w3.org/1999/xlink" x="0px" y="0px"
	 viewBox="0 0 846.4 92" style="enable-background:new 0 0 846.4 92;" xml:space="preserve">
<style type="text/css">
	.st0{fill:#FFFFFF;}
	.st1{fill:#18D400;}
</style>
<g>
	<path class="st0" d="M72.3,0.9H19.4c-5.3,0-9.9,1.9-13.7,5.6C1.9,10.2,0,14.9,0,20.2V38c0,5.4,1.9,10,5.7,13.7
		c3.8,3.7,8.4,5.6,13.7,5.6h50.9v14H21.1v-7.4H0v9.3c0,5.4,1.9,10,5.7,13.7c3.8,3.7,8.4,5.6,13.7,5.6h52.9c5.3,0,9.9-1.9,13.7-5.7
		c3.8-3.8,5.7-8.4,5.7-13.7V55.4c0-5.3-1.9-9.9-5.7-13.7c-3.8-3.8-8.4-5.7-13.7-5.7H21.1v-14h49.2v7.4h21.4v-9.2
		c0-5.3-1.9-9.9-5.7-13.7C82.2,2.8,77.6,0.9,72.3,0.9z"/>
	<polygon class="st0" points="152.4,22.5 141.5,35.5 125.2,35.5 125.2,0.3 103.9,0.3 103.9,92 125.2,92 125.2,56.8 141.5,56.8 
		170.7,91.7 170.9,92 192.4,92 192.4,84 160.6,46.2 192.4,8.3 192.4,0.3 170.9,0.3 	"/>
	<rect x="204.7" y="0.3" class="st0" width="21.2" height="91.7"/>
	<polygon class="st0" points="259.5,0.2 238.3,0.2 238.3,92 330,92 330,70.7 259.5,70.7 	"/>
	<polygon class="st0" points="363.4,0.2 342.3,0.2 342.3,92 433.9,92 433.9,70.7 363.4,70.7 	"/>
	<path class="st0" d="M619.7,0h-52.6c-5.4,0-10,1.9-13.7,5.6c-3.7,3.7-5.6,8.3-5.6,13.7V72c0,5.4,1.9,10,5.6,13.7
		c3.7,3.7,8.3,5.6,13.7,5.6h52.6c5.4,0,10-1.9,13.7-5.7c3.8-3.8,5.7-8.3,5.7-13.6V37.3h-40.7v21.2h19.4v11.7h-49v-49h49v7.5h21.3
		v-9.3c0-5.3-1.9-9.9-5.7-13.6C629.7,1.9,625.1,0,619.7,0z"/>
	<path class="st0" d="M723.2,0h-52.6c-5.4,0-10,1.9-13.7,5.6c-3.7,3.7-5.6,8.3-5.6,13.7v72h21V62.4h49v28.9h21.3v-72
		c0-5.3-1.9-9.9-5.7-13.6C733.2,1.9,728.6,0,723.2,0z M721.4,21.2v20.1h-49V21.2H721.4z"/>
	<path class="st0" d="M840.6,5.8c-3.8-3.8-8.4-5.7-13.7-5.7h-71.9v91.2h21V62.7h0.4v-0.8l50.5-0.1c5.3,0,9.9-1.9,13.7-5.7
		c3.8-3.8,5.7-8.3,5.7-13.6V19.4C846.4,14.1,844.4,9.6,840.6,5.8z M825.1,21.2v19.5h-49V21.2H825.1z"/>
	<polygon class="st1" points="446.1,34.5 466.5,34.5 466.5,21.5 501.2,21.5 446.4,77.3 446.1,77.5 446.1,92 461.2,92 515.2,37.3 
		515.2,71.6 502.1,71.6 502.1,92 535.5,92 535.5,1.1 446.1,1.1 	"/>
</g>
</svg>
